<svg height="512" viewBox="0 0 52 60" width="512" xmlns="http://www.w3.org/2000/svg"><g id="Page-1" fill="none" fill-rule="evenodd"><g id="007---Jumper" fill-rule="nonzero"><path id="Shape" d="m51 36v18h-7.05c-.07-5.5-.3-14.09-.95-18-.5439121-3.4534947-1.5530855-6.817406-3-10l-.24-.46c-.4658665 3.8029306-.7195926 7.6288539-.76 11.46v17h-26v-17c-.0404074-3.8311461-.2941335-7.6570694-.76-11.46l-.24.46c-1.4469145 3.182594-2.45608793 6.5465053-3 10-.65 3.91-.88 12.5-.95 18h-7.05v-18c0-13.58 3.69-23.01 6.06-27.66 1.03673025-2.06062855 2.7535892-3.69976961 4.86-4.64l2.15-1.1c-.32 4.5-.07 17.24 11.93 22.4 12-5.16 12.25-17.9 11.93-22.4l2.15 1.1c2.1064108.94023039 3.8232697 2.57937145 4.86 4.64 2.37 4.65 6.06 14.08 6.06 27.66z" fill="#a0522d"/><path id="Shape" d="m44.94 8.34c-1.0367303-2.06062855-2.7535892-3.69976961-4.86-4.64l-2.15-1.1c.032.447.057.979.067 1.573 1.692514.97483479 3.0630754 2.42325717 3.943 4.167 2.37 4.65 6.06 14.08 6.06 27.66v18h3v-18c0-13.58-3.69-23.01-6.06-27.66z" fill="#783e22"/><path id="Shape" d="m8.05 54c-.03 1.71-.05 3.13-.05 4.01-.00105746.2639741-.10707367.5166863-.29466869.7024054-.18759503.185719-.44135987.2891901-.70533131.2875946h-5c-.55228475 0-1-.4477153-1-1v-4z" fill="#ff9801"/><path id="Shape" d="m5.05 54c-.03 1.71-.05 3.13-.05 4.01-.00105746.2639741-.10707367.5166863-.29466869.7024054-.18759503.185719-.44135987.2891901-.70533131.2876128l3-.0000182c.26397144.0015955.51773628-.1018756.70533131-.2875946.18759502-.1857191.29361123-.4384313.29466869-.7024054 0-.88.02-2.3.05-4.01z" fill="#f57c00"/><path id="Shape" d="m26 25c-12-5.16-12.25-17.9-11.93-22.4l2.61-1.34c.4141274-.18626529.8664415-.27193084 1.32-.25-.06.44-1.84 14.07 8 18.99 9.81-4.91 8.07-18.48 8-18.99.4535585-.02193084.9058726.06373471 1.32.25l2.61 1.34c.32 4.5.07 17.24-11.93 22.4z" fill="#ff9801"/><path id="Shape" d="m37.93 2.6-2.61-1.34c-.4141274-.18626529-.8664415-.27193084-1.32-.25.011.082.065.5.108 1.168l.822.422c.306 4.3.083 16.137-10.43 21.676.481.253.975.5 1.5.724 12-5.16 12.25-17.9 11.93-22.4z" fill="#f57c00"/><path id="Shape" d="m26 20c-9.84-4.92-8.06-18.55-8-18.99.3907328.00645619.7757368.09504117 1.13.26 2.1304353 1.08683528 4.4789155 1.67822839 6.87 1.73 2.3910845-.05177161 4.7395647-.64316472 6.87-1.73.3542632-.16495883.7392672-.25354381 1.13-.26.07.51 1.81 14.08-8 18.99z" fill="#783e22"/><path id="Shape" d="m51 54v4c0 .5522847-.4477153 1-1 1h-5c-.2639714.0015955-.5177363-.1018756-.7053313-.2875946-.187595-.1857191-.2936112-.4384313-.2946687-.7024054 0-.88-.02-2.3-.05-4.01z" fill="#ff9801"/><path id="Shape" d="m48 54v4c0 .5522847-.4477153 1-1 1h3c.5522847 0 1-.4477153 1-1v-4z" fill="#f57c00"/><path id="Shape" d="m39 54v4c0 .5522847-.4477153 1-1 1h-24c-.5522847 0-1-.4477153-1-1v-4z" fill="#ff9801"/><path id="Shape" d="m36 54v4c0 .5522847-.4477153 1-1 1h3c.5522847 0 1-.4477153 1-1v-4z" fill="#f57c00"/><g fill="#ffe0b2"><path id="Shape" d="m18 31c-.5522847 0-1-.4477153-1-1v-1c0-.5522847.4477153-1 1-1s1 .4477153 1 1v1c0 .5522847-.4477153 1-1 1z"/><path id="Shape" d="m18 36c-.5522847 0-1-.4477153-1-1v-1c0-.5522847.4477153-1 1-1s1 .4477153 1 1v1c0 .5522847-.4477153 1-1 1z"/><path id="Shape" d="m18 41c-.5522847 0-1-.4477153-1-1v-1c0-.5522847.4477153-1 1-1s1 .4477153 1 1v1c0 .5522847-.4477153 1-1 1z"/><path id="Shape" d="m18 46c-.5522847 0-1-.4477153-1-1v-1c0-.5522847.4477153-1 1-1s1 .4477153 1 1v1c0 .5522847-.4477153 1-1 1z"/><path id="Shape" d="m18 51c-.5522847 0-1-.4477153-1-1v-1c0-.5522847.4477153-1 1-1s1 .4477153 1 1v1c0 .5522847-.4477153 1-1 1z"/><path id="Shape" d="m22 31c-.5522847 0-1-.4477153-1-1v-1c0-.5522847.4477153-1 1-1s1 .4477153 1 1v1c0 .5522847-.4477153 1-1 1z"/><path id="Shape" d="m22 36c-.5522847 0-1-.4477153-1-1v-1c0-.5522847.4477153-1 1-1s1 .4477153 1 1v1c0 .5522847-.4477153 1-1 1z"/><path id="Shape" d="m22 41c-.5522847 0-1-.4477153-1-1v-1c0-.5522847.4477153-1 1-1s1 .4477153 1 1v1c0 .5522847-.4477153 1-1 1z"/><path id="Shape" d="m22 46c-.5522847 0-1-.4477153-1-1v-1c0-.5522847.4477153-1 1-1s1 .4477153 1 1v1c0 .5522847-.4477153 1-1 1z"/><path id="Shape" d="m22 51c-.5522847 0-1-.4477153-1-1v-1c0-.5522847.4477153-1 1-1s1 .4477153 1 1v1c0 .5522847-.4477153 1-1 1z"/><path id="Shape" d="m34 31c-.5522847 0-1-.4477153-1-1v-1c0-.5522847.4477153-1 1-1s1 .4477153 1 1v1c0 .5522847-.4477153 1-1 1z"/><path id="Shape" d="m34 36c-.5522847 0-1-.4477153-1-1v-1c0-.5522847.4477153-1 1-1s1 .4477153 1 1v1c0 .5522847-.4477153 1-1 1z"/><path id="Shape" d="m34 41c-.5522847 0-1-.4477153-1-1v-1c0-.5522847.4477153-1 1-1s1 .4477153 1 1v1c0 .5522847-.4477153 1-1 1z"/><path id="Shape" d="m34 46c-.5522847 0-1-.4477153-1-1v-1c0-.5522847.4477153-1 1-1s1 .4477153 1 1v1c0 .5522847-.4477153 1-1 1z"/><path id="Shape" d="m34 51c-.5522847 0-1-.4477153-1-1v-1c0-.5522847.4477153-1 1-1s1 .4477153 1 1v1c0 .5522847-.4477153 1-1 1z"/><path id="Shape" d="m30 31c-.5522847 0-1-.4477153-1-1v-1c0-.5522847.4477153-1 1-1s1 .4477153 1 1v1c0 .5522847-.4477153 1-1 1z"/><path id="Shape" d="m30 36c-.5522847 0-1-.4477153-1-1v-1c0-.5522847.4477153-1 1-1s1 .4477153 1 1v1c0 .5522847-.4477153 1-1 1z"/><path id="Shape" d="m30 41c-.5522847 0-1-.4477153-1-1v-1c0-.5522847.4477153-1 1-1s1 .4477153 1 1v1c0 .5522847-.4477153 1-1 1z"/><path id="Shape" d="m30 46c-.5522847 0-1-.4477153-1-1v-1c0-.5522847.4477153-1 1-1s1 .4477153 1 1v1c0 .5522847-.4477153 1-1 1z"/><path id="Shape" d="m30 51c-.5522847 0-1-.4477153-1-1v-1c0-.5522847.4477153-1 1-1s1 .4477153 1 1v1c0 .5522847-.4477153 1-1 1z"/><path id="Shape" d="m26 31c-.5522847 0-1-.4477153-1-1v-1c0-.5522847.4477153-1 1-1s1 .4477153 1 1v1c0 .5522847-.4477153 1-1 1z"/><path id="Shape" d="m26 36c-.5522847 0-1-.4477153-1-1v-1c0-.5522847.4477153-1 1-1s1 .4477153 1 1v1c0 .5522847-.4477153 1-1 1z"/><path id="Shape" d="m26 41c-.5522847 0-1-.4477153-1-1v-1c0-.5522847.4477153-1 1-1s1 .4477153 1 1v1c0 .5522847-.4477153 1-1 1z"/><path id="Shape" d="m26 46c-.5522847 0-1-.4477153-1-1v-1c0-.5522847.4477153-1 1-1s1 .4477153 1 1v1c0 .5522847-.4477153 1-1 1z"/><path id="Shape" d="m26 51c-.5522847 0-1-.4477153-1-1v-1c0-.5522847.4477153-1 1-1s1 .4477153 1 1v1c0 .5522847-.4477153 1-1 1z"/></g><path id="Shape" d="m2 60h5c1.09873805.0000309 1.99175947-.8862928 2-1.985.021-3.851.151-16.807.986-21.85.3724049-2.2297564.9262449-4.425384 1.656-6.565.212 2.449.358 5 .358 7.4v21c0 1.1045695.8954305 2 2 2h24c1.1045695 0 2-.8954305 2-2v-21c0-2.4.146-4.953.359-7.4.7294841 2.1406474 1.2829892 4.3372767 1.655 6.568.835 5.044.965 18 .986 21.846.0076939 1.0990982.9008748 1.9860269 2 1.986h5c1.1045695 0 2-.8954305 2-2v-22c0-13.926-3.865-23.592-6.167-28.111-1.1325039-2.25004356-3.0035852-4.04275124-5.3-5.078l-4.806-2.466c-1.04034-.46227873-2.2285104-.45864073-3.266.01l-.169.077c-1.9536884.98660897-4.1038001 1.52242829-6.292 1.568-2.1881999-.04557171-4.3383116-.58139103-6.292-1.568l-.168-.076c-1.0558898-.47381343-2.2648565-.46907524-3.317.013l-4.71 2.418c-2.31438471 1.0355139-4.20153434 2.83649877-5.344 5.1-2.304 4.521-6.169 14.187-6.169 28.113v22c0 1.1045695.8954305 2 2 2zm0-2v-3h5.027c-.015 1.243-.027 2.281-.027 3zm12 0v-3h24v3zm31 0c0-.72-.012-1.76-.027-3h5.027v3zm-19-54c2.4692086-.04629437 4.8971923-.64133483 7.108-1.742.192 3.232.092 12.642-7.108 16.613-7.2-3.971-7.3-13.381-7.108-16.613 2.2108077 1.10066517 4.6387914 1.69570563 7.108 1.742zm-9.123-1.721c-.237 3.821-.028 14.264 8.676 18.621.2814108.1406214.6125892.1406214.894 0 8.7-4.351 8.912-14.789 8.676-18.614l1.843.945c.261 5.054-.5 15.92-10.966 20.681-10.47-4.766-11.227-15.633-10.966-20.687zm-8.925 6.512c.94679547-1.86783945 2.5095281-3.35144638 4.424-4.2l.63-.324c-.052 5.374 1.26 16.777 12.6 21.652.2527492.1089993.5392508.1089993.792 0 11.339-4.876 12.65-16.279 12.6-21.652l.679.348c1.8957992.84924178 3.4414137 2.32529122 4.377 4.18 2.217 4.361 5.946 13.696 5.946 27.205v17h-5.057c-.094-5.548-.336-13.413-.957-17.165-.556821-3.5552655-1.5981731-7.0174671-3.095-10.29l-.095-.186c.547-4.619 1.176-8.119 1.187-8.18.0804523-.3580932-.0417229-.7314832-.3182915-.9727573-.2765686-.241274-.6630827-.3116565-1.0069483-.1833608-.3438656.1282956-.5898195.4346509-.6407602.7981181-1.1745268 6.6666337-1.8487411 13.4117844-2.017 20.179v16h-24v-16c-.1682589-6.7672156-.8424732-13.5123663-2.017-20.179-.0509407-.3634672-.2968946-.6698225-.6407602-.7981181-.3438656-.1282957-.7303797-.0579132-1.0069483.1833608-.2765686.2412741-.39874383.6146641-.3182915.9727573.011.061.641 3.56 1.188 8.18l-.1.194c-1.49475816 3.2705522-2.53474674 6.7303396-3.091 10.283-.621 3.752-.863 11.618-.957 17.164h-5.057v-17c0-13.509 3.729-22.844 5.952-27.209z" fill="#000"/></g></g></svg>