<?xml version="1.0" encoding="iso-8859-1"?>
<!-- Generator: Adobe Illustrator 19.0.0, SVG Export Plug-In . SVG Version: 6.00 Build 0)  -->
<svg version="1.1" id="Capa_1" xmlns="http://www.w3.org/2000/svg" xmlns:xlink="http://www.w3.org/1999/xlink" x="0px" y="0px"
	 viewBox="0 0 512.001 512.001" style="enable-background:new 0 0 512.001 512.001;" xml:space="preserve">
<path style="fill:#FFFFFF;" d="M383.54,448V303.983V218V64H384l0,0c0-29.823-24.177-54-54-54l0,0l0,0c-29.823,0-54,24.177-54,54l0,0
	H48v154v85.983V448c0,29.823,24.177,54,54,54l0,0l0,0h329.567l-0.043-0.342C404.534,498.665,383.54,475.789,383.54,448z"/>
<g>
	<path style="fill:#FEDBAB;" d="M384,402h108v46l0,0c0,29.823-24.177,54-54,54l0,0l0,0c-29.823,0-54-24.177-54-54l0,0V402z"/>
	<path style="fill:#FEDBAB;" d="M330,10H64c-29.823,0-54,24.177-54,54l0,0h266l0,0C276,34.177,300.177,10,330,10z"/>
</g>
<path style="fill:#D0E6EF;" d="M484.561,64.05L484.561,64.05c-49.834-1.252-81.635,21.137-111.02,73.106
	c0,0-45.567,78.923-65.706,113.805c-27.145,47.017,12.794,97.038,12.794,97.038l0.002,0.001c0,0,63.29,9.578,90.435-37.439
	c20.139-34.882,65.705-113.806,65.705-113.806c30.315-51.432,33.803-90.168,7.802-132.699l0,0L484.561,64.05z"/>
<polygon style="fill:#FE947C;" points="367.516,148.503 389.164,229.295 469.957,207.647 491.254,158.556 418.796,177.971 
	398.669,102.858 "/>
<path style="fill:#8CCEEA;" d="M359.109,281.668l-21.873-81.63c-10.883,18.849-21.904,37.938-29.401,50.924
	C280.69,297.979,320.629,348,320.629,348l0.002,0.001c0,0,63.29,9.578,90.435-37.439c7.461-12.923,18.412-31.891,29.244-50.652
	L359.109,281.668z"/>
<path style="fill:#F25353;" d="M238.003,128c-10.872,0-20.677,4.742-27.603,12.341C203.474,132.742,193.669,128,182.797,128
	c-20.985,0-37.997,17.662-37.997,39.449c0,36.726,65.6,72.551,65.6,72.551s65.6-35.826,65.6-72.551
	C276,145.662,258.988,128,238.003,128z"/>
<path d="M48,269.375c5.523,0,10-4.477,10-10v-0.292c0-5.523-4.477-10-10-10s-10,4.477-10,10v0.292
	C38,264.898,42.477,269.375,48,269.375z"/>
<path d="M256.003,322.006H130.997c-5.523,0-10,4.477-10,10s4.477,10,10,10h125.005c5.523,0,10-4.477,10-10
	S261.525,322.006,256.003,322.006z"/>
<path d="M256.003,371.013h-95.411c-5.523,0-10,4.477-10,10s4.477,10,10,10h95.411c5.523,0,10-4.477,10-10
	S261.525,371.013,256.003,371.013z"/>
<path d="M114.558,381.012c0,5.523,4.477,10,10,10h0.124c5.523,0,10-4.477,10-10s-4.477-10-10-10h-0.124
	C119.035,371.012,114.558,375.489,114.558,381.012z"/>
<path d="M419.727,315.562l65.66-113.729c16.515-28.02,24.898-51.568,26.383-74.108c1.535-23.299-4.57-45.832-18.663-68.885
	c-0.924-1.511-2.232-2.75-3.791-3.589l-0.013-0.007c-1.382-0.744-2.92-1.153-4.49-1.192c-27.011-0.669-49.577,5.301-68.988,18.279
	c-7.651,5.116-14.87,11.33-21.824,18.781V64c0-35.29-28.71-64-64-64H64C28.71,0,0,28.71,0,64c0,5.523,4.477,10,10,10h28v144
	c0,5.523,4.477,10,10,10s10-4.477,10-10V74h218c5.523,0,10-4.477,10-10c0-24.262,19.738-44,44-44s44,19.738,44,44v53.078
	c-3.059,4.709-6.093,9.727-9.119,15.078l-65.706,113.805c-5.233,9.063-8.295,18.167-9.776,27.039H130.997c-5.523,0-10,4.477-10,10
	s4.477,10,10,10h157.536c1.836,24.941,13.768,45.905,20.219,55.576l-38.344,66.414c-2.762,4.783-1.123,10.899,3.66,13.66
	c1.575,0.909,3.294,1.341,4.991,1.341c3.456,0,6.817-1.793,8.669-5.001l38.344-66.414c2.319,0.15,5.135,0.264,8.342,0.264
	c10.403,0,24.882-1.208,39.586-6.296V448c0,17.033,6.702,32.521,17.59,44H102c-24.262,0-44-19.738-44-44V303.982
	c0-5.523-4.477-10-10-10s-10,4.477-10,10V448c0,35.29,28.71,64,64,64h335.565c0.05,0,0.09-0.007,0.139-0.008
	c0.099,0,0.197,0.008,0.296,0.008c35.29,0,64-28.71,64-64v-46c0-5.523-4.477-10-10-10h-97.925c-0.025,0-0.049,0.004-0.074,0.004
	v-49.181C403.731,336.462,412.732,327.678,419.727,315.562z M266.787,54H21.146C25.686,34.54,43.177,20,64,20h219.59
	C274.876,29.187,268.845,40.938,266.787,54z M394.074,412H482v36c0,24.262-19.738,44-44,44c-24.261,0-44-19.738-44-44v-36.004
	C394.025,411.996,394.049,412,394.074,412z M382.246,142.078c3.291-5.82,6.586-11.213,9.91-16.212
	c0.121-0.171,0.234-0.346,0.344-0.525c0.44-0.657,0.882-1.289,1.322-1.932l14.242,53.152l-15.49,26.829l-14.495-54.096
	L382.246,142.078z M425.388,186.558l53.143-14.239c-2.981,6.231-6.441,12.689-10.419,19.437l-4.12,7.136l-54.094,14.494
	L425.388,186.558z M484.176,84.733c9.143,20.854,10.36,41.241,3.446,64.444l-48.093,12.886L484.176,84.733z M466.857,74.731
	l-44.65,77.336l-12.89-48.105C425.948,86.379,444.215,77.237,466.857,74.731z M316.495,255.961l47.443-82.174l14.495,54.097
	l-15.49,26.829l-5.307-19.807c-1.43-5.334-6.913-8.502-12.248-7.071c-5.334,1.429-8.5,6.913-7.071,12.248l10.484,39.125
	l-28.578,49.498C311.452,312.333,300.813,283.124,316.495,255.961z M366.123,289.206l39.121-10.483
	c5.334-1.429,8.5-6.913,7.071-12.248c-1.43-5.334-6.912-8.503-12.248-7.071l-19.802,5.306l15.49-26.829l54.094-14.495
	l-47.443,82.175c-15.688,27.171-46.302,32.551-64.859,33.139L366.123,289.206z"/>
<path d="M205.607,248.776c1.494,0.816,3.143,1.224,4.793,1.224s3.299-0.408,4.793-1.224c0.704-0.384,17.434-9.575,34.375-23.57
	C273.743,205.237,286,185.805,286,167.449C286,140.183,264.469,118,238.003,118c-9.914,0-19.577,3.208-27.603,9.007
	c-8.025-5.798-17.688-9.007-27.603-9.007c-26.466,0-47.998,22.183-47.998,49.449c0,18.356,12.257,37.789,36.432,57.757
	C188.173,239.201,204.903,248.392,205.607,248.776z M154.8,167.449c0-16.238,12.56-29.449,27.998-29.449
	c7.699,0,14.877,3.224,20.212,9.077c1.895,2.079,4.578,3.264,7.391,3.264s5.496-1.185,7.391-3.264
	c5.335-5.853,12.514-9.077,20.212-9.077C253.44,138,266,151.21,266,167.449c0,22.851-37.166,49.908-55.605,61.012
	C191.95,217.374,154.8,190.357,154.8,167.449z"/>
<g>
</g>
<g>
</g>
<g>
</g>
<g>
</g>
<g>
</g>
<g>
</g>
<g>
</g>
<g>
</g>
<g>
</g>
<g>
</g>
<g>
</g>
<g>
</g>
<g>
</g>
<g>
</g>
<g>
</g>
</svg>
