<svg id="Capa_1" enable-background="new 0 0 500.644 500.644" height="512" viewBox="0 0 500.644 500.644" width="512" xmlns="http://www.w3.org/2000/svg"><g><path d="m66.691 500.643c-.709-5.787-1.097-11.685-1.097-17.684 0-72.907 54.015-132.01 120.645-132.01 66.631 0 120.645 59.103 120.645 132.01 0 5.999-.388 11.897-1.097 17.684z" fill="#e9a385"/><path d="m133.11 500.643c-.88-7.027-1.368-14.324-1.368-21.832 0-54.449 24.399-98.588 54.497-98.588s54.497 44.139 54.497 98.588c0 7.509-.488 14.805-1.368 21.832z" fill="#f5dbb6"/><path d="m66.691 500.643c-.709-5.787-1.097-11.685-1.097-17.684 0-72.907 54.015-132.01 120.645-132.01 3.419 0 6.803.164 10.15.469-49.313 3.925-87.613 32.882-87.613 68.042 0 37.838 44.348 68.511 99.055 68.511 43.001 0 79.588-18.956 93.282-45.441 3.743 12.743 5.772 26.326 5.772 40.43 0 5.999-.388 11.897-1.097 17.684h-239.097z" fill="#d57b84"/><path d="m239.368 500.644c.671-5.364 1.11-10.877 1.282-16.528-10.273 2.496-21.313 3.856-32.82 3.856-30.231 0-57.297-9.364-75.466-24.13-.411 4.884-.621 9.879-.621 14.971 0 7.508.488 14.805 1.368 21.832h106.257z" fill="#dca3b4"/><path d="m103.613 208.115c-1.703-42.924 2.254-78.983 24.021-112.111 5.585-8.501 18.325-7.584 22.578 1.655l32.82 56.798c1.967 4.272 6.499 6.724 11.158 6.084 16.964-2.33 34.39-1.415 51.592 3.406 18.111 5.076 34.394 14.039 48.467 25.786 3.639 3.038 14.144 1.135 18.867.667l64.824-9.822c9.167-1.31 20.896.183 20.15 10.334-2.669 36.343-26.329 50.758-50.591 86.874 6.573 27.12 6.737 55.845-.769 82.631-18.73 66.829-154.804 67.896-172.391 62.967-17.587-4.928-131.684-76.104-112.955-142.933 7.638-27.254 22.629-52.23 42.229-72.336z" fill="#e9a385"/><path d="m278.319 341.019c-14.249 1.436-27.429-7.49-30.921-21.379-3.708-14.749-12.753-30.246-33.7-36.117-20.64-5.784-35.986 2.501-46.504 13.039-10.044 10.063-26.131 11.204-37.519 2.692-13.007-9.723-28.67-12.776-41.919-6.592-12.21 5.699-19.698 18.018-21.506 32.604.045.101.092.202.138.302 1.429 3.151 3.045 6.274 4.826 9.363 26.755 46.389 90.36 84.875 103.126 88.452 12.488 3.5 84.716 3.968 132.254-19.979 4.272-2.259 6.702-3.645 6.702-3.645 2.104-1.233 4.146-2.521 6.115-3.868 5.907-13.32 5.85-27.613-1.567-38.748-8.153-12.24-23.25-17.764-39.525-16.124z" fill="#f5dbb6"/><g><path d="m281.461 330.489c-1.796 0-3.62-.242-5.433-.75-5.185-1.453-9.494-4.838-12.132-9.532-2.639-4.694-3.292-10.134-1.839-15.319.894-3.191 4.207-5.053 7.397-4.158 3.191.894 5.053 4.206 4.158 7.397-.588 2.099-.324 4.3.744 6.2 1.068 1.899 2.812 3.27 4.911 3.858 4.334 1.213 8.843-1.323 10.058-5.655.895-3.191 4.204-5.055 7.397-4.158 3.191.895 5.053 4.206 4.158 7.397-2.492 8.89-10.608 14.72-19.419 14.72z" fill="#be545e"/></g><g><path d="m143.201 291.738c-1.826 0-3.663-.251-5.47-.757-10.703-3-16.971-14.147-13.971-24.851.894-3.191 4.204-5.053 7.396-4.158 3.191.894 5.052 4.206 4.158 7.396-1.214 4.332 1.323 8.843 5.655 10.058 2.099.589 4.3.324 6.2-.745 1.9-1.068 3.27-2.811 3.858-4.91.894-3.191 4.209-5.054 7.396-4.159 3.191.894 5.053 4.206 4.159 7.396-1.453 5.185-4.838 9.494-9.532 12.133-3.058 1.721-6.434 2.597-9.849 2.597z" fill="#be545e"/></g><path d="m193.037 304.977c-2.203 7.861 7.281 17.391 10.245 18.222s16.019-2.384 18.222-10.244c2.203-7.861-3.533-11.92-11.393-14.123-7.861-2.204-14.871-1.716-17.074 6.145z" fill="#d58a9c"/><g><path d="m220.784 349.547c-.536 0-1.081-.072-1.622-.224-14.968-4.195-23.734-19.786-19.539-34.755.894-3.191 4.204-5.055 7.396-4.158 3.19.894 5.052 4.206 4.158 7.396-2.409 8.598 2.626 17.552 11.223 19.962 3.191.894 5.053 4.206 4.158 7.396-.742 2.65-3.151 4.383-5.774 4.383z" fill="#d58a9c"/></g><g><path d="m183.788 338.324c-2.554 0-5.124-.351-7.65-1.059-3.191-.894-5.053-4.206-4.158-7.396.894-3.191 4.206-5.054 7.396-4.158 4.165 1.167 8.535.642 12.305-1.477 3.77-2.12 6.489-5.581 7.657-9.746.894-3.191 4.205-5.052 7.396-4.158s5.053 4.206 4.158 7.396c-2.032 7.251-6.767 13.277-13.331 16.968-4.276 2.405-8.997 3.63-13.773 3.63z" fill="#d58a9c"/></g><ellipse cx="282.695" cy="264.393" fill="#f5dbb6" rx="13.662" ry="19.315" transform="matrix(.27 -.963 .963 .27 -48.174 465.256)"/><ellipse cx="165.993" cy="231.688" fill="#f5dbb6" rx="13.662" ry="19.315" transform="matrix(.27 -.963 .963 .27 -101.893 329.004)"/><g><path d="m333.717 249.258c-1.556 0-3.11-.601-4.285-1.8l-12.099-12.342c-1.586-1.618-2.125-3.99-1.395-6.134.73-2.145 2.606-3.695 4.85-4.008 10.767-1.504 28.113-11.521 33.889-15.253 2.783-1.799 6.498-1.001 8.296 1.78 1.799 2.782 1.003 6.495-1.778 8.295-.737.477-14.616 9.401-28.101 14.256l4.908 5.006c2.32 2.366 2.282 6.165-.084 8.485-1.169 1.144-2.686 1.715-4.201 1.715z" fill="#be545e"/></g><path d="m103.613 208.115c-1.703-42.924 1.756-78.983 23.523-112.111 5.585-8.501 18.694-7.852 22.948 1.387l5.472 9.517c-16.732 27.578-19.007 58.055-17.612 93.199-16.981 17.419-29.97 39.06-36.587 62.673-16.227 57.901 82.629 119.569 97.866 123.839s133.133 3.346 149.36-54.555c1.696-6.053 2.93-12.222 3.741-18.449.448 15.794-1.337 31.611-5.594 46.803-18.73 66.829-154.804 67.894-172.39 62.966-17.587-4.928-131.684-76.103-112.955-142.933 7.637-27.254 22.628-52.23 42.228-72.336z" fill="#d57b84"/><path d="m199.222 386.618c-12.898-3.615-85.725-48.376-97.933-97.148-4.657.142-9.214 1.177-13.533 3.193-12.21 5.699-19.698 18.018-21.506 32.604.045.101.092.202.138.302 1.429 3.151 3.045 6.274 4.826 9.363 26.755 46.389 90.36 84.875 103.126 88.452 12.488 3.5 84.716 3.968 132.254-19.979 4.272-2.259 6.702-3.645 6.702-3.645 2.104-1.233 4.146-2.521 6.115-3.868 4.608-10.39 5.589-21.364 2.277-30.978-40.554 25.184-110.932 24.937-122.466 21.704z" fill="#dca3b4"/><g><path d="m135.057 189.6c-3.154 0-5.799-2.462-5.984-5.652-.192-3.308 2.333-6.145 5.642-6.338l6.999-.407c-6.719-12.66-10.994-28.597-11.219-29.445-.849-3.203 1.059-6.486 4.261-7.336 3.197-.849 6.488 1.057 7.338 4.259 1.766 6.646 7.874 25.723 14.833 34.075 1.45 1.74 1.796 4.149.895 6.227-.901 2.079-2.895 3.472-5.157 3.604l-17.254 1.003c-.119.006-.237.01-.354.01z" fill="#be545e"/></g><path d="m489.183 56.201-47.59 46.928s1.572 9.013-2.862 19.03c-5.831 13.175-17.111 21.618-36.945 21.604s-48.2-4.692-59.89-6.74c-11.463-2.009-23.307-5.87-21.72-18.694 1.425-11.509 10.926-14.359 27.01-12.327 0 0 23.079 2.236 25.475 1.351 15.087-5.574-11.12-20.312-17.186-23.079-10.705-4.882-44.094-16.415-51.298-16.065s-64.783 27.602-64.783 27.602c-10.014 3.699-16.058-3.422-18.967-9.46s-3.349-16.197 6.108-21.587c0 0 54.099-31.371 71.579-33.561 6.456-.809 66.408 6.548 94.016 13.729l56.143-44.721 51.403-.211s.217 43.5-.314 45.965c-.01.05-10.143 10.2-10.179 10.236z" fill="#c59b8c"/><path d="m499.676 0-14.933.062-72.603 72.177c-6.096 6.061-1.553 13.759-3.593 22.11-.384 1.572-.925 3.238-1.678 4.94-4.755 10.744-13.954 17.629-30.129 17.618-14.635-.01-43.625-3.134-54.425-4.966-1.091 1.74-1.824 3.84-2.139 6.388-1.587 12.824 10.258 16.685 21.72 18.694 11.689 2.048 40.055 6.726 59.89 6.74s31.114-8.429 36.945-21.603c4.434-10.018 2.862-19.031 2.862-19.031l47.59-46.928c.036-.035 10.169-10.185 10.18-10.235.53-2.466.313-45.966.313-45.966z" fill="#c7758d"/><path d="m105.327 35.456c-.637-14.281-12.413-25.665-26.852-25.665-11.444 0-21.211 7.154-25.09 17.231-3.88-10.077-13.647-17.231-25.091-17.231-14.182 0-25.79 10.984-26.803 24.908-4.767 27.695 50.932 72.644 50.932 72.644s57.286-44.842 52.904-71.887z" fill="#d88aba"/><path d="m105.327 35.456c-.239-5.355-2.044-10.304-4.969-14.396-1.706-2.388-3.795-4.486-6.172-6.201-4.419-3.188-9.845-5.067-15.71-5.067-7.1 0-13.551 2.757-18.355 7.254 15.685-5.153 26.199 5.396 26.708 16.671 2.327 14.175-15.967 33.305-29.505 45.71-7.293 6.683-16.832 6.401-24.715.43-7.092-5.373-21.848-18.751-27.666-27.021.005.016.013.036.018.053 11.818 25.687 47.462 54.455 47.462 54.455 9.253-7.242 24.617-21.38 33.206-31.417 10.891-12.442 20.194-26.47 19.932-37.884-.02-.879-.097-1.742-.234-2.587z" fill="#c668b9"/><g><path d="m252.234 218.423c-1.81 0-3.642-.491-5.29-1.521-2.216-1.385-5.739-2.57-8.074-3.085-5.393-1.189-8.801-6.526-7.611-11.919 1.189-5.393 6.524-8.804 11.919-7.611 1.927.425 8.659 2.089 14.366 5.656 4.684 2.927 6.107 9.096 3.18 13.78-1.898 3.033-5.156 4.7-8.49 4.7z" fill="#fff"/></g><g><path d="m207.135 208.036c-5.267 0-9.678-4.118-9.975-9.442-.309-5.514 3.912-10.234 9.426-10.543 1.409-.079 2.933-.106 4.654-.082 5.522.076 9.938 4.614 9.862 10.136-.075 5.522-4.656 9.932-10.136 9.862-1.274-.018-2.311-.001-3.264.053-.19.01-.379.016-.567.016z" fill="#fff"/></g><path d="m402.995 392.9 8.214 23.098c.352.989 1.048 1.773 1.927 2.169l20.521 9.246c2.899 1.306 2.899 5.926 0 7.232l-20.521 9.246c-.879.396-1.575 1.18-1.927 2.168l-8.214 23.098c-1.16 3.263-5.265 3.263-6.425 0l-8.214-23.098c-.352-.989-1.048-1.773-1.927-2.168l-20.521-9.246c-2.899-1.306-2.899-5.926 0-7.232l20.521-9.246c.879-.396 1.575-1.18 1.927-2.169l8.214-23.098c1.16-3.263 5.264-3.263 6.425 0z" fill="#efc5b4"/><path d="m447.209 271.873 6.093 17.133c.261.734.777 1.315 1.429 1.609l15.222 6.858c2.151.969 2.151 4.395 0 5.364l-15.222 6.858c-.652.294-1.168.875-1.429 1.609l-6.093 17.133c-.861 2.421-3.905 2.421-4.766 0l-6.093-17.133c-.261-.734-.777-1.315-1.429-1.609l-15.222-6.858c-2.15-.969-2.15-4.395 0-5.364l15.222-6.858c.652-.294 1.168-.875 1.429-1.609l6.093-17.133c.86-2.421 3.905-2.421 4.766 0z" fill="#efc5b4"/><g fill="#e9a385"><ellipse cx="18.86" cy="383.597" rx="17.937" ry="17.937" transform="matrix(.232 -.973 .973 .232 -358.68 313.13)"/><circle cx="470.322" cy="346.307" r="7.737"/></g></g></svg>