<svg height="512" viewBox="0 0 512 512" width="512" xmlns="http://www.w3.org/2000/svg"><g id="Filled_outline" data-name="Filled outline"><path d="m336.19 435.52-14.81-19.52-297.38-392v464h352zm-240.19-27.52v-168l128 168z" fill="#ffb431"/><path d="m400 24h48a8 8 0 0 1 8 8v400a0 0 0 0 1 0 0h-64a0 0 0 0 1 0 0v-400a8 8 0 0 1 8-8z" fill="#348ed8"/><path d="m424 488-32-56h64z" fill="#426887"/><rect fill="#426887" height="64" rx="16" width="32" x="424" y="312"/><path d="m184 8h32a16 16 0 0 1 16 16v48a16 16 0 0 1 -16 16h-32a0 0 0 0 1 0 0v-80a0 0 0 0 1 0 0z" fill="#dfdfdd" transform="matrix(0 -1 1 0 160 256)"/><path d="m168 72v80a16 16 0 0 0 16 16h48a16 16 0 0 0 16-16v-80z" fill="#348ed8"/><path d="m336.19 435.52-8.19 20.48v32h-16v-32l-16-40h25.38z" fill="#f9a614"/><path d="m280 72h48v184h-48z" fill="#de5540"/><path d="m304 24a16 16 0 0 1 16 16v32a0 0 0 0 1 0 0h-32a0 0 0 0 1 0 0v-32a16 16 0 0 1 16-16z" fill="#dfdfdd"/><rect fill="#426887" height="160" rx="8" width="64" x="272" y="256"/><path d="m328 416h-48l16 40v32h16v-32z" fill="#dfdfdd"/><path d="m93.441 232.42a8 8 0 0 0 -5.441 7.58v168a8 8 0 0 0 8 8h128a8 8 0 0 0 6.363-12.849l-128-168a8 8 0 0 0 -8.922-2.731zm10.559 31.28 103.848 136.3h-103.848zm-73.626-244.535 224.55 296-12.747 9.67-210.177-277.053v80.218h16v16h-16v16h32v16h-32v16h16v16h-16v16h32v16h-32v16h16v16h-16v16h32v16h-32v16h16v16h-16v16h32v16h-32v16h16v16h-16v16h32v16h-32v16h16v16h-16v16h248v16h-256a8 8 0 0 1 -8-8v-464a8 8 0 0 1 14.374-4.835zm352 464a8 8 0 0 1 -6.374 12.835h-48v-16h31.889l-26.678-35.165 12.746-9.67zm-110.374-339.165v106.165a16 16 0 0 0 -8 13.835v144a16.012 16.012 0 0 0 10.26 14.917l21.74 50.726v22.357h16v-22.357l21.74-50.726a16.012 16.012 0 0 0 10.26-14.917v-144a16 16 0 0 0 -8-13.835v-138.165h16v120h16v-120a16.019 16.019 0 0 0 -16-16h-16v-24a8 8 0 0 0 -8-8v-24a24 24 0 0 0 -48 0v24a8 8 0 0 0 -8 8v56h16v-16h32v104h-32v-72zm32 307.691-11.868-27.691h23.736zm-8-411.691a8 8 0 0 1 16 0v24h-16zm-8 56v-16h32v16zm40 168v16h-24v16h24v16h-24v16h24v16h-24v16h24.007v16h-24.007v16h24.009v16h-48.009v-144zm-8-32v16h-32v-16zm160-184h-16v-16a16.019 16.019 0 0 0 -16-16h-48a16.019 16.019 0 0 0 -16 16v400a7.989 7.989 0 0 0 1.028 3.915c.01.018.016.036.026.054l32 56a8 8 0 0 0 13.892 0l32-56c.01-.018.016-.036.026-.054a8.447 8.447 0 0 0 1.028-3.915v-152h-16v25.376a23.992 23.992 0 0 0 -32 22.624v32a23.992 23.992 0 0 0 32 22.624v41.376h-48v-176h48v16h16v-40.8a40.068 40.068 0 0 0 32-39.2v-120a16.019 16.019 0 0 0 -16-16zm-40 320a8.009 8.009 0 0 1 -8-8v-32a8 8 0 0 1 16 0v32a8.009 8.009 0 0 1 -8 8zm2.215 72-18.215 31.875-18.215-31.875zm5.785-208h-48v-168h16v120a40.068 40.068 0 0 0 32 39.2zm0-25.376a24.039 24.039 0 0 1 -16-22.624v-120a16.019 16.019 0 0 0 -16-16h-16v-16h48zm32-22.624a24.039 24.039 0 0 1 -16 22.624v-142.624h16zm-320-136v104a24.028 24.028 0 0 0 24 24h48a24.028 24.028 0 0 0 24-24v-112a24.028 24.028 0 0 0 -24-24h-48a24.085 24.085 0 0 0 -20.784 11.994l13.849 8.012a8.039 8.039 0 0 1 6.935-4.006h48a8.009 8.009 0 0 1 8 8v24h-64v-16zm80 32v72a8.009 8.009 0 0 1 -8 8h-48a8.009 8.009 0 0 1 -8-8v-72zm-32 64h-16v-48h16z"/></g></svg>